<?xml version="1.0" encoding="utf-8"?>
<!-- Svg Vector Icons : http://www.onlinewebfonts.com/icon -->
<!DOCTYPE svg PUBLIC "-//W3C//DTD SVG 1.1//EN" "http://www.w3.org/Graphics/SVG/1.1/DTD/svg11.dtd">
<svg version="1.1" xmlns="http://www.w3.org/2000/svg" xmlns:xlink="http://www.w3.org/1999/xlink" x="0px" y="0px" viewBox="0 0 1000 1000" enable-background="new 0 0 1000 1000" xml:space="preserve">
<metadata> Svg Vector Icons : http://www.onlinewebfonts.com/icon </metadata>
<g><path d="M942.9,941.5c0-6.8-1.7-13-4.3-18.7c-23-154.6-123.7-283.7-262.8-343.5c82.1-56.1,136.1-150.4,136.1-257.5C811.8,149.6,672.3,10,500,10c-172.2,0-311.8,139.6-311.8,311.9c0,107,54,201.3,136.1,257.5C185.8,639,85.5,767.5,62,921.3c-3.2,6.1-5.5,12.8-5.5,20.2l0.4,4.1c0,24.5,19.9,44.4,44.5,44.4c24.5,0,44.5-19.9,44.5-44.4l-0.1-0.6h2.5C169.9,771.1,315.3,636,494.3,633.1c2,0,3.8,0.6,5.7,0.6c2,0,3.8-0.6,5.8-0.6c179.2,2.9,324.5,138.1,346,311.9h2.5l0.1,0.6c0,24.6,19.9,44.4,44.5,44.4s44.5-19.9,44.5-44.4L942.9,941.5z M499.9,544.7c-123,0-222.7-99.8-222.7-222.7c0-123,99.8-222.7,222.7-222.7c123.1,0,222.8,99.8,222.8,222.7C722.7,444.9,623,544.7,499.9,544.7z"/></g>
</svg>